<?xml version="1.0" encoding="UTF-8"?>
<svg id="_Слой_1" data-name="Слой_1" xmlns="http://www.w3.org/2000/svg" version="1.1" viewBox="0 0 566.93 566.93">
  <!-- Generator: Adobe Illustrator 29.4.0, SVG Export Plug-In . SVG Version: 2.1.0 Build 152)  -->
  <defs>
    <style>
      .st0 {
        font-family: FuturaLT-Bold, 'Futura LT';
        font-size: 64.46px;
        font-weight: 700;
      }

      .st0, .st1 {
        fill: #0fa744;
      }

      .st2 {
        fill: #e3000b;
      }
    </style>
  </defs>
  <g>
    <path class="st1" d="M385.3,78.57c-14.24,47.71-61.4,52.66-104.51,50.24l-5.09,13.17h184.59c-15.15,49.6-59.33,52.53-103.9,50.86-19.3,38.88-28.34,91.28-51.09,127.65-22.41,35.81-64.76,51.67-97.91,75.11,24.58-69.3,49.15-138.61,73.73-207.91-8.53-.69-17.06-1.39-25.59-2.08-15.07,41.82-30.14,83.65-45.22,125.47h-73.07l69.22-182.55c-4.87-1.03-38.39-7.83-62.49,0-9.21,2.99-19.01,7.97-19.01,7.97-7.72,3.92-13.92,7.96-18.47,11.24,4.97-27.46,38.51-69.17,68.25-69.17h210.55Z"/>
    <path class="st2" d="M333.98,141.98h-84.42c-29.74,0-63.28,41.71-68.25,69.16,4.5-3.24,10.7-7.29,18.47-11.24,0,0,9.86-5.01,19.01-7.97,23.72-7.67,55.59-1.12,60.89.01l-72.15,203.65c33.14-23.45,75.5-39.3,97.91-75.11,22.76-36.37,31.79-88.77,51.09-127.65,44.56,1.67,88.74-1.26,103.9-50.86h-126.45Z"/>
  </g>
  <text class="st0" transform="translate(98.26 469.87)"><tspan x="0" y="0">ТЕЛОТРОН</tspan></text>
</svg>